<svg xmlns="http://www.w3.org/2000/svg" viewBox="0 0 512 512"><path d="M256 80c-68.925 0-125 56.075-125 125s56.075 125 125 125c11.641 0 23.175-1.603 34.282-4.765 10.624-3.023 16.784-14.087 13.761-24.711-3.025-10.623-14.087-16.785-24.712-13.76A85.216 85.216 0 01256 290c-46.869 0-85-38.131-85-85s38.131-85 85-85 85 38.131 85 85c0 8.339-1.2 16.57-3.567 24.463-3.173 10.58 2.832 21.729 13.412 24.902 10.581 3.171 21.728-2.831 24.902-13.412A125.092 125.092 0 00381 205c0-68.925-56.075-125-125-125z"/><path d="M400.877 59.964C362.167 21.296 310.715 0 256 0c-54.716 0-106.167 21.296-144.877 59.965-38.706 38.666-60.057 90.088-60.12 144.838.039 39.855 11.109 77.247 33.841 114.315 19.685 32.097 45.258 60.103 72.332 89.753 26.547 29.071 53.996 59.133 75.918 93.815A20.002 20.002 0 00250 512h12a20 20 0 0016.906-9.315c21.922-34.682 49.371-64.744 75.918-93.815 27.074-29.649 52.647-57.655 72.332-89.753 22.733-37.068 33.802-74.461 33.841-114.358-.062-54.707-21.414-106.129-60.12-144.795zm-75.591 321.935c-23.604 25.849-47.891 52.447-69.286 83.037-21.394-30.59-45.682-57.188-69.286-83.037-51.319-56.201-95.641-104.739-95.711-177.093C91.107 113.932 165.125 40 256 40s164.893 73.932 164.997 164.763c-.07 72.397-44.392 120.934-95.711 177.136z"/></svg>