<svg height="512pt" viewBox="0 -28 512.001 512" width="512pt" xmlns="http://www.w3.org/2000/svg"><path d="M284.504 0C165.285 0 67.934 91.41 57.887 207.5h-17.88c-9.3 0-17.374 6.41-19.48 15.469l-20 86c-2.914 12.535 6.618 24.531 19.48 24.531h10v22c0 11.047 8.954 20 20 20 11.048 0 20-8.953 20-20v-22h14v22c0 11.047 8.954 20 20 20 11.048 0 20-8.953 20-20v-22h10c12.868 0 22.395-12 19.481-24.531l-20-86a19.998 19.998 0 00-19.48-15.469H98.074C108.09 113.48 187.875 40 284.504 40 387.89 40 472 124.113 472 227.5c0 96.633-73.48 176.418-167.496 186.434v-46.145c46.766-9.324 82.121-50.684 82.121-100.148 0-105.996-86.297-173.215-89.969-176.024a19.991 19.991 0 00-24.3 0c-3.676 2.809-89.973 70.028-89.973 176.024 0 49.464 35.355 90.824 82.12 100.148V435c0 11.047 8.958 20 20 20C410.235 455 512 353.25 512 227.5 512 101.77 410.254 0 284.504 0zM98.125 247.5l10.7 46H45.19l10.7-46zm186.379-35.504c-11.047 0-20 8.953-20 20v94.441c-24.469-8.343-42.121-31.539-42.121-58.796 0-51.274 26.281-98.414 62.12-133.375 35.927 35.043 62.122 82.101 62.122 133.375 0 27.257-17.652 50.453-42.121 58.796v-94.44c0-11.048-8.953-20-20-20zm0 0"/></svg>