<svg xmlns="http://www.w3.org/2000/svg" width="1809" height="506"><path d="M1618.9 66.033h29.33v29.355h-28.11v97.849h-37.89V95.388h-14.66V64.81h14.66c-1.5-43.821 26.91-55.76 67.22-45.255v30.578h-1.22c-10.04-3.807-20.99-2.6-28.11 2.446v2.446q-.615 5.504-1.22 11.008zm-553.63 127.2h-37.89q.615-88.056 1.22-176.129l36.67 1.223v174.91zm32.99-176.129l39.11 1.223v31.8h-39.11V17.108zm-530.408 7.343q.612 36.69 1.222 73.387v-2.446l67.219-70.941h44l-67.221 72.164 70.884 96.626c-14.615.334-37.222 2.435-47.663-2.446l-48.886-68.495-19.555 18.347v52.594h-37.886l1.222-168.79h36.664zm640.408 118.642v50.148h-37.89q.615-84.387 1.22-168.79c54.56-1.232 108.91-4.834 127.11 30.578 32.9 64.017-30.65 89.405-90.44 88.064zm0-84.395v51.371c25.88 1.043 49.61 1.5 56.22-17.123V72.149c-12.7-13.53-28.6-14.06-56.22-13.455zm194.32 41.586c-46.56.477-42.82 45.534-41.55 92.957h-36.67q.615-64.818 1.22-129.65h35.45v24.462c.81-.408 1.63-.816 2.44-1.223 5.06-16.317 18.97-24.342 39.11-25.685v39.139zm76.99-39.139c93.98 3.376 95.76 121.768 7.34 135.765-50.88 8.055-90.14-47.364-69.67-95.4 11.72-27.483 32.95-29.412 62.33-40.365zm-481.522 132.1h-35.442q-.612-6.726-1.222-13.454c-18.058 30.976-74.62 14.138-81.884-14.678-12.3-48.778 49.94-59.17 83.106-45.255-.042-10.853-3.059-14.711-7.333-20.793-19-6.27-37.763-2.765-56.219 2.446l-8.555-26.908 3.667-2.446c11.965-7.4 36.28-11.54 53.774-8.562 63.1 10.739 51.436 59.142 50.108 129.646zm-320.2-129.65h36.662v2.446l19.554 73.387h2.445l23.22-75.833h31.776l23.221 77.056h1.222l20.777-77.056h35.442L833.058 194.46h-34.22q-11.608-39.135-23.221-78.279H774.4l-24.448 78.279h-33L677.846 63.587zm458.3 129.65h-37.89l1.23-129.65 36.66 1.223v128.423zm337.31-99.072c-35.27 18.058-30.43 82.63 18.34 69.717 36.092-9.561 32.532-72.274-18.338-69.721zM930.83 136.974c-5.157 3-9.19 3.249-12.222 8.562-2.981 3.3-3.519 5.667-3.666 12.231l4.889 8.562c19.893 6.625 32.179 1.5 42.775-11.008.367-6.259.477-11.756-2.445-14.678-6.835-4.01-18.132-3.954-29.331-3.669zm-584.186 78.279V477h-1.222L107.1 441.53v-179.8zm-130.77 119.866l96.55-4.893-1.223-85.618-95.327 15.9v74.611zm-91.661-59.933v64.825h1.222l67.218-3.669V265.4zm91.661 80.726c-.313 14.277-3.178 74.443 2.444 80.725l94.106 11.008v-92.957zm-91.661 1.223v69.717l68.44 7.339v-78.279z" fill-rule="evenodd" fill="#132745"/><path data-name="my_vector_mask_shape" d="M248.872 29.34l-1.222 185.913-29.332 4.893V62.364L59.439 83.157V344.9l36.661-4.889c.439 8.636 1.841 24.835-2.444 29.355l-63.552 8.562V141.866c0-15.218-3.66-76.133 2.444-83.172zm-79.44 194.475v-39.14l19.555-2.446v39.14zm587.853 33.024c132.567-2.983 138.68 166.828 28.109 188.36-74.489 14.506-132.315-62.194-103.882-130.873 14.709-35.526 39.866-42.259 75.773-57.487zM515.3 258.062h51.33l1.222 69.718v-2.446l53.775-67.272h58.663l-66 81.949 70.884 103.965c-17.968.332-47.677 3.774-61.107-2.446q-22-32.41-44-64.825l-7.333 6.115-6.111 8.562v52.594H515.3V258.062zm361.755 0h141.765c.89 64.078-51.975 101.623-80.657 140.659l83.107 1.223v44.032H873.389v-39.14l85.55-101.518h-81.884v-45.256zm168.655 0h51.33v185.914h-51.33V258.062zm131.99 0h52.56c1.47 73.027 12.21 163.84-41.56 183.468-22.15 8.087-61.53 8.99-75.77-7.339q6.1-20.179 12.22-40.363a62.43 62.43 0 0042.78 4.893c18.66-26.421 10.07-97.893 9.77-140.659zm80.67 0h40.33l73.33 91.734v-91.734h52.55v185.914h-41.56l-72.1-90.511h-1.22v90.511h-51.33V258.062zm197.98 0h130.77q-.6 22.626-1.22 45.256h-78.22v24.462h67.22v42.809h-67.22v28.132l81.89 1.223v44.032h-133.22V258.062zm156.44 0h40.33l73.33 91.734v-91.734H1779v185.914h-41.55q-36.06-45.25-72.11-90.511h-1.22v90.511h-51.33V258.062zm-848.172 44.032c-9.621 3.963-19.653 4.931-25.665 12.232-23.077 28.021-11.909 96.744 39.109 85.618 48.023-10.473 44.943-98.55-13.444-97.85z" fill="#2fae12" fill-rule="evenodd"/></svg>