<svg xmlns="http://www.w3.org/2000/svg" height="512" viewBox="0 0 60 60" width="512"><g fill="none"><path d="M50.424 48.677a.987.987 0 00-.732 1.122l1.288 8.011a1 1 0 01-1.71.87l-8.382-9.348a1 1 0 00-.744-.332H12A11 11 0 011 38V12C1 5.925 5.925 1 12 1h36c6.075 0 11 4.925 11 11v26a11.106 11.106 0 01-8.576 10.677z" fill="#fff" data-original="#E91E63" data-old_color="#e91e63"/><path d="M48 1h-3c6.075 0 11 4.925 11 11v26a11.106 11.106 0 01-8.576 10.677.986.986 0 00-.731 1.122l1.176 7.318 1.4 1.563a1 1 0 001.71-.87l-1.286-8.01a.986.986 0 01.731-1.122A11.106 11.106 0 0059 38V12A11 11 0 0048 1z" fill="#00000000" data-original="#AD1457" data-old_color="#ad1457"/><circle cx="14" cy="25" fill="#ffe529" r="4" data-original="#FFEB3A" data-old_color="#ffeb3a"/><circle cx="30" cy="25" fill="#ffe529" r="4" data-original="#FFEB3A" data-old_color="#ffeb3a"/><circle cx="46" cy="25" fill="#ffe529" r="4" data-original="#FFEB3A" data-old_color="#ffeb3a"/><path d="M5 13a1 1 0 01-1-1 8.009 8.009 0 018-8 1 1 0 010 2 6.006 6.006 0 00-6 6 1 1 0 01-1 1z" fill="#ffe529" data-original="#F5F5F5" data-old_color="#f5f5f5"/><circle cx="16" cy="5" fill="#ffe529" r="1" data-original="#F5F5F5" data-old_color="#f5f5f5"/><g fill="#000"><path d="M12 50h28.144l8.4 9.362a1.978 1.978 0 002.361.416 1.968 1.968 0 001.062-2.126l-1.285-8.008A12.163 12.163 0 0060 38V12C59.993 5.376 54.624.007 48 0H12C5.376.007.007 5.376 0 12v26c.007 6.624 5.376 11.993 12 12zM2 12c.006-5.52 4.48-9.994 10-10h36c5.52.006 9.994 4.48 10 10v26a10.146 10.146 0 01-7.808 9.7 1.993 1.993 0 00-1.487 2.254l1.31 8.055-8.383-9.349a2 2 0 00-1.488-.66H12c-5.52-.006-9.994-4.48-10-10z" data-original="#000" class="active-path" data-old_color="#000"/><path d="M14 30a5 5 0 100-10 5 5 0 000 10zm0-8a3 3 0 110 6 3 3 0 010-6zm16 8a5 5 0 100-10 5 5 0 000 10zm0-8a3 3 0 110 6 3 3 0 010-6zm16 8a5 5 0 100-10 5 5 0 000 10zm0-8a3 3 0 110 6 3 3 0 010-6z" data-original="#000" class="active-path" data-old_color="#000"/></g></g></svg>