<svg xmlns="http://www.w3.org/2000/svg" viewBox="0 0 512 512"><path d="M384 85.333H128c-34.219 0-66.368 13.312-90.517 37.461C13.312 146.965 0 179.115 0 213.333c0 70.592 57.408 128 128 128h70.741l48.107 80.149a10.669 10.669 0 0018.304 0l48.107-80.149H384c34.219 0 66.368-13.312 90.517-37.461C498.688 279.701 512 247.552 512 213.333c0-70.592-57.408-128-128-128zm75.435 203.456C439.317 308.907 412.523 320 384 320h-76.8a10.669 10.669 0 00-9.152 5.184L256 395.264l-42.069-70.101A10.66 10.66 0 00204.8 320H128c-58.816 0-106.667-47.851-106.667-106.667 0-28.501 11.093-55.317 31.232-75.456 20.118-20.117 46.912-31.21 75.435-31.21h256c58.816 0 106.667 47.851 106.667 106.667 0 28.501-11.094 55.317-31.232 75.455z"/><path d="M384 170.667c-23.531 0-42.667 19.136-42.667 42.667 0 23.53 19.136 42.666 42.667 42.666 23.531 0 42.667-19.136 42.667-42.667 0-23.53-19.136-42.666-42.667-42.666zm0 64c-11.776 0-21.333-9.579-21.333-21.333 0-11.755 9.557-21.333 21.333-21.333s21.333 9.579 21.333 21.333c0 11.754-9.557 21.333-21.333 21.333zm-128-64c-23.531 0-42.667 19.136-42.667 42.667 0 23.53 19.136 42.666 42.667 42.666s42.667-19.136 42.667-42.667c0-23.53-19.136-42.666-42.667-42.666zm0 64c-11.776 0-21.333-9.579-21.333-21.333 0-11.755 9.557-21.333 21.333-21.333s21.333 9.579 21.333 21.333c0 11.754-9.557 21.333-21.333 21.333zm-128-64c-23.531 0-42.667 19.136-42.667 42.667C85.333 236.864 104.469 256 128 256c23.531 0 42.667-19.136 42.667-42.667 0-23.53-19.136-42.666-42.667-42.666zm0 64c-11.776 0-21.333-9.579-21.333-21.333 0-11.755 9.557-21.333 21.333-21.333s21.333 9.579 21.333 21.333c0 11.754-9.557 21.333-21.333 21.333z"/></svg>