<svg xmlns="http://www.w3.org/2000/svg" width="1809" height="506" viewBox="0 0 1809 506">
  <defs>
    <style>
      .cls-1 {
        fill: #132745;
      }

      .cls-1, .cls-2 {
        fill-rule: evenodd;
      }

      .cls-2 {
        fill: #2fae12;
      }
    </style>
  </defs>
  <path id="my_vector_mask_shape" class="cls-1" d="M1618.9,66.033h29.33V95.388h-28.11v97.849h-37.89V95.388h-14.66V64.81h14.66c-1.5-43.821,26.91-55.76,67.22-45.255V50.133h-1.22c-10.04-3.807-20.99-2.6-28.11,2.446v2.446Q1619.505,60.529,1618.9,66.033Zm-553.63,127.2h-37.89q0.615-88.056,1.22-176.129l36.67,1.223V193.237Zm32.99-176.129,39.11,1.223v31.8h-39.11V17.108ZM567.852,24.447q0.612,36.69,1.222,73.387V95.388l67.219-70.941h44L613.072,96.611l70.884,96.626c-14.615.334-37.222,2.435-47.663-2.446q-24.441-34.244-48.886-68.495l-19.555,18.347v52.594H529.966q0.611-84.387,1.222-168.79h36.664ZM1208.26,143.089v50.148h-37.89q0.615-84.387,1.22-168.79c54.56-1.232,108.91-4.834,127.11,30.578C1331.6,119.042,1268.05,144.43,1208.26,143.089Zm0-84.395v51.371c25.88,1.043,49.61,1.5,56.22-17.123V72.149C1251.78,58.619,1235.88,58.089,1208.26,58.694Zm194.32,41.586c-46.56.477-42.82,45.534-41.55,92.957h-36.67q0.615-64.818,1.22-129.65h35.45V88.049c0.81-.408,1.63-0.816,2.44-1.223,5.06-16.317,18.97-24.342,39.11-25.685V100.28Zm76.99-39.139c93.98,3.376,95.76,121.768,7.34,135.765-50.88,8.055-90.14-47.364-69.67-95.4C1428.96,74.023,1450.19,72.094,1479.57,61.141Zm-481.522,132.1H962.606q-0.612-6.726-1.222-13.454c-18.058,30.976-74.62,14.138-81.884-14.678-12.3-48.778,49.94-59.17,83.106-45.255-0.042-10.853-3.059-14.711-7.333-20.793-19-6.27-37.763-2.765-56.219,2.446q-4.277-13.452-8.555-26.908l3.667-2.446c11.965-7.4,36.28-11.54,53.774-8.562C1011.04,74.33,999.376,122.733,998.048,193.237Zm-320.2-129.65H714.51v2.446q9.776,36.69,19.554,73.387h2.445l23.22-75.833h31.776q11.61,38.524,23.221,77.056h1.222l20.777-77.056h35.442L833.058,194.46h-34.22q-11.608-39.135-23.221-78.279H774.4L749.952,194.46h-33Q697.4,129.03,677.846,63.587Zm458.3,129.65h-37.89q0.615-64.818,1.23-129.65l36.66,1.223V193.237Zm337.31-99.072c-35.27,18.058-30.43,82.63,18.34,69.717C1527.89,154.325,1524.33,91.612,1473.46,94.165ZM930.83,136.974c-5.157,3-9.19,3.249-12.222,8.562-2.981,3.3-3.519,5.667-3.666,12.231l4.889,8.562c19.893,6.625,32.179,1.5,42.775-11.008,0.367-6.259.477-11.756-2.445-14.678C953.326,136.633,942.029,136.689,930.83,136.974ZM346.644,215.253V477h-1.222L107.1,441.53v-179.8ZM215.874,335.119l96.55-4.893q-0.612-42.8-1.223-85.618l-95.327,15.9v74.611Zm-91.661-59.933v64.825h1.222l67.218-3.669V265.4Zm91.661,80.726c-0.313,14.277-3.178,74.443,2.444,80.725l94.106,11.008V354.688Zm-91.661,1.223v69.717l68.44,7.339V355.912Z"/>
  <path id="my_vector_mask_shape-2" data-name="my_vector_mask_shape" class="cls-2" d="M248.872,29.34q-0.611,92.947-1.222,185.913l-29.332,4.893V62.364L59.439,83.157V344.9L96.1,340.011c0.439,8.636,1.841,24.835-2.444,29.355l-63.552,8.562V141.866c0-15.218-3.66-76.133,2.444-83.172Zm-79.44,194.475v-39.14l19.555-2.446v39.14Zm587.853,33.024c132.567-2.983,138.68,166.828,28.109,188.36-74.489,14.506-132.315-62.194-103.882-130.873C696.221,278.8,721.378,272.067,757.285,256.839ZM515.3,258.062h51.33q0.611,34.855,1.222,69.718v-2.446l53.775-67.272H680.29l-66,81.949q35.439,51.978,70.884,103.965c-17.968.332-47.677,3.774-61.107-2.446q-22-32.41-44-64.825l-7.333,6.115-6.111,8.562v52.594H515.3V258.062Zm361.755,0H1018.82c0.89,64.078-51.975,101.623-80.657,140.659l83.107,1.223v44.032H873.389v-39.14l85.55-101.518H877.055V258.062Zm168.655,0h51.33V443.976h-51.33V258.062Zm131.99,0h52.56c1.47,73.027,12.21,163.84-41.56,183.468-22.15,8.087-61.53,8.99-75.77-7.339q6.1-20.179,12.22-40.363a62.43,62.43,0,0,0,42.78,4.893C1186.59,372.3,1178,300.828,1177.7,258.062Zm80.67,0h40.33q36.66,45.862,73.33,91.734V258.062h52.55V443.976h-41.56l-72.1-90.511h-1.22v90.511h-51.33V258.062Zm197.98,0h130.77q-0.6,22.626-1.22,45.256h-78.22V327.78h67.22v42.809h-67.22v28.132l81.89,1.223v44.032H1456.35V258.062Zm156.44,0h40.33q36.66,45.862,73.33,91.734V258.062H1779V443.976h-41.55q-36.06-45.25-72.11-90.511h-1.22v90.511h-51.33V258.062ZM764.618,302.094c-9.621,3.963-19.653,4.931-25.665,12.232-23.077,28.021-11.909,96.744,39.109,85.618C826.085,389.471,823.005,301.394,764.618,302.094Z"/>
</svg>
